<mxfile host="app.diagrams.net" modified="2022-12-09T15:08:52.434Z" agent="5.0 (Windows NT 10.0; Win64; x64) AppleWebKit/537.36 (KHTML, like Gecko) Chrome/108.0.0.0 Safari/537.36" version="20.6.2" etag="CcO6QMCO46OPIVRCoWTX" type="github">
  <diagram id="7gHb8mNXJh63erLjYRPJ" name="Page-1">
    <mxGraphModel dx="1038" dy="579" grid="1" gridSize="10" guides="1" tooltips="1" connect="1" arrows="1" fold="1" page="1" pageScale="1" pageWidth="850" pageHeight="1400" math="0" shadow="0">
      <root>
        <object label="" id="0">
          <mxCell />
        </object>
        <mxCell id="1" parent="0" />
        <mxCell id="FAEp0ZUPG66e5WmhKOUz-1" value="App" style="shape=umlActor;verticalLabelPosition=bottom;verticalAlign=top;html=1;outlineConnect=0;fontFamily=Comic Sans MS;" vertex="1" parent="1">
          <mxGeometry x="30" y="310" width="50" height="60" as="geometry" />
        </mxCell>
        <mxCell id="FAEp0ZUPG66e5WmhKOUz-7" value="" style="shape=flexArrow;endArrow=classic;html=1;rounded=0;fontFamily=Comic Sans MS;" edge="1" parent="1" source="FAEp0ZUPG66e5WmhKOUz-1">
          <mxGeometry width="50" height="50" relative="1" as="geometry">
            <mxPoint x="400" y="330" as="sourcePoint" />
            <mxPoint x="130" y="340" as="targetPoint" />
          </mxGeometry>
        </mxCell>
        <mxCell id="FAEp0ZUPG66e5WmhKOUz-8" value="Transfer Service" style="swimlane;whiteSpace=wrap;html=1;fontFamily=Comic Sans MS;" vertex="1" parent="1">
          <mxGeometry x="130" y="170" width="680" height="620" as="geometry" />
        </mxCell>
        <mxCell id="FAEp0ZUPG66e5WmhKOUz-10" value="Transfer API" style="rounded=0;whiteSpace=wrap;html=1;fontFamily=Comic Sans MS;" vertex="1" parent="FAEp0ZUPG66e5WmhKOUz-8">
          <mxGeometry x="10" y="30" width="100" height="250" as="geometry" />
        </mxCell>
        <mxCell id="FAEp0ZUPG66e5WmhKOUz-21" value="" style="edgeStyle=orthogonalEdgeStyle;rounded=0;orthogonalLoop=1;jettySize=auto;html=1;fontFamily=Comic Sans MS;" edge="1" parent="FAEp0ZUPG66e5WmhKOUz-8" source="FAEp0ZUPG66e5WmhKOUz-16" target="FAEp0ZUPG66e5WmhKOUz-20">
          <mxGeometry relative="1" as="geometry" />
        </mxCell>
        <mxCell id="FAEp0ZUPG66e5WmhKOUz-16" value="Interceptor Verifies below;" style="swimlane;whiteSpace=wrap;html=1;fontFamily=Comic Sans MS;" vertex="1" parent="FAEp0ZUPG66e5WmhKOUz-8">
          <mxGeometry x="190" y="55" width="190" height="245" as="geometry" />
        </mxCell>
        <mxCell id="FAEp0ZUPG66e5WmhKOUz-17" value="DeviceChallenge" style="shape=or;whiteSpace=wrap;html=1;fontFamily=Comic Sans MS;" vertex="1" parent="FAEp0ZUPG66e5WmhKOUz-16">
          <mxGeometry x="20" y="25" width="140" height="55" as="geometry" />
        </mxCell>
        <mxCell id="FAEp0ZUPG66e5WmhKOUz-18" value="Pin" style="shape=or;whiteSpace=wrap;html=1;fontFamily=Comic Sans MS;" vertex="1" parent="FAEp0ZUPG66e5WmhKOUz-16">
          <mxGeometry x="20" y="90" width="140" height="45" as="geometry" />
        </mxCell>
        <mxCell id="FAEp0ZUPG66e5WmhKOUz-19" value="Scopes(tranfer)" style="shape=or;whiteSpace=wrap;html=1;fontFamily=Comic Sans MS;" vertex="1" parent="FAEp0ZUPG66e5WmhKOUz-16">
          <mxGeometry x="20" y="145" width="140" height="55" as="geometry" />
        </mxCell>
        <mxCell id="FAEp0ZUPG66e5WmhKOUz-20" value="true" style="shape=singleArrow;whiteSpace=wrap;html=1;arrowWidth=0.4;arrowSize=0.4;fontFamily=Comic Sans MS;fontStyle=1;startSize=23;" vertex="1" parent="FAEp0ZUPG66e5WmhKOUz-8">
          <mxGeometry x="390" y="137.5" width="80" height="60" as="geometry" />
        </mxCell>
        <mxCell id="FAEp0ZUPG66e5WmhKOUz-25" value="Proceeds further" style="whiteSpace=wrap;html=1;aspect=fixed;fontFamily=Comic Sans MS;" vertex="1" parent="FAEp0ZUPG66e5WmhKOUz-8">
          <mxGeometry x="490" y="50" width="180" height="180" as="geometry" />
        </mxCell>
        <mxCell id="FAEp0ZUPG66e5WmhKOUz-28" value="false" style="shape=flexArrow;endArrow=classic;html=1;rounded=0;fontFamily=Comic Sans MS;exitX=0.5;exitY=1;exitDx=0;exitDy=0;" edge="1" parent="FAEp0ZUPG66e5WmhKOUz-8" source="FAEp0ZUPG66e5WmhKOUz-16">
          <mxGeometry width="50" height="50" relative="1" as="geometry">
            <mxPoint x="250" y="290" as="sourcePoint" />
            <mxPoint x="285" y="340" as="targetPoint" />
          </mxGeometry>
        </mxCell>
        <mxCell id="FAEp0ZUPG66e5WmhKOUz-30" value="&lt;pre style=&quot;background-color:#ffffff;color:#080808;font-family:&#39;JetBrains Mono&#39;,monospace;font-size:9.8pt;&quot;&gt;&lt;pre style=&quot;font-family: &amp;quot;JetBrains Mono&amp;quot;, monospace; font-size: 9.8pt;&quot;&gt;AdditionalAuthorizationRequired &lt;/pre&gt;&lt;pre style=&quot;font-family: &amp;quot;JetBrains Mono&amp;quot;, monospace; font-size: 9.8pt;&quot;&gt;Exception thrown&lt;/pre&gt;&lt;/pre&gt;" style="whiteSpace=wrap;html=1;aspect=fixed;fontFamily=Comic Sans MS;" vertex="1" parent="FAEp0ZUPG66e5WmhKOUz-8">
          <mxGeometry x="165" y="340" width="240" height="240" as="geometry" />
        </mxCell>
        <mxCell id="FAEp0ZUPG66e5WmhKOUz-33" value="Intercepted By" style="shape=singleArrow;whiteSpace=wrap;html=1;arrowWidth=0.4;arrowSize=0.4;fontFamily=Comic Sans MS;" vertex="1" parent="FAEp0ZUPG66e5WmhKOUz-8">
          <mxGeometry x="110" y="137.5" width="80" height="60" as="geometry" />
        </mxCell>
        <mxCell id="FAEp0ZUPG66e5WmhKOUz-31" style="edgeStyle=orthogonalEdgeStyle;rounded=0;orthogonalLoop=1;jettySize=auto;html=1;fontFamily=Comic Sans MS;" edge="1" parent="1" source="FAEp0ZUPG66e5WmhKOUz-30">
          <mxGeometry relative="1" as="geometry">
            <mxPoint x="55" y="410" as="targetPoint" />
          </mxGeometry>
        </mxCell>
        <mxCell id="FAEp0ZUPG66e5WmhKOUz-32" style="edgeStyle=orthogonalEdgeStyle;rounded=0;orthogonalLoop=1;jettySize=auto;html=1;fontFamily=Comic Sans MS;" edge="1" parent="1">
          <mxGeometry relative="1" as="geometry">
            <mxPoint x="320" y="335" as="targetPoint" />
            <mxPoint x="320" y="335" as="sourcePoint" />
          </mxGeometry>
        </mxCell>
      </root>
    </mxGraphModel>
  </diagram>
</mxfile>
